<svg xmlns="http://www.w3.org/2000/svg" xmlns:xlink="http://www.w3.org/1999/xlink" width="32" height="160" viewBox="0 0 32 160"><svg viewBox="0 0 496.158 496.158" width="32" height="32" id="add" y="0"><path d="M0 248.085C0 111.063 111.069.003 248.075.003c137.013 0 248.083 111.061 248.083 248.082 0 137.002-111.07 248.07-248.083 248.07C111.069 496.155 0 385.087 0 248.085z" data-original="#32BEA6" data-old_color="#00CEFF" fill="#00afff"></path><path d="M383.546 206.55H289.08v-93.938a7.2 7.2 0 0 0-7.201-7.199H213.75a7.2 7.2 0 0 0-7.2 7.199v93.938h-93.937a7.2 7.2 0 0 0-7.2 7.2v69.187a7.2 7.2 0 0 0 7.2 7.199h93.937v93.41a7.2 7.2 0 0 0 7.2 7.199h68.129a7.2 7.2 0 0 0 7.201-7.199v-93.41h94.466a7.2 7.2 0 0 0 7.199-7.199V213.75a7.2 7.2 0 0 0-7.199-7.2z" data-original="#FFFFFF" class="active-path" fill="#fff"></path></svg><svg viewBox="0 0 60 60" width="32" height="32" id="file" y="32"><path d="M12.5 24h25a1 1 0 0 0 0-2h-25a1 1 0 0 0 0 2zM12.5 16h10a1 1 0 0 0 0-2h-10a1 1 0 0 0 0 2zM12.5 32h25a1 1 0 0 0 0-2h-25a1 1 0 0 0 0 2zM29.5 38h-17a1 1 0 0 0 0 2h17a1 1 0 0 0 0-2zM26.5 46h-14a1 1 0 0 0 0 2h14a1 1 0 0 0 0-2z"></path><path d="M48.5 34.363V14.586L33.914 0H1.5v60h44c7.168 0 13-5.832 13-13 0-6.134-4.276-11.277-10-12.637zm-14-30.949L45.086 14H34.5V3.414zM38.578 58H3.5V2h29v14h14v18.044a11.818 11.818 0 0 0-1-.044c-7.168 0-13 5.832-13 13a13.233 13.233 0 0 0 .087 1.455c.043.382.098.76.173 1.131.009.044.021.087.03.131.072.338.159.67.257.998.025.082.048.165.074.246.113.352.239.698.38 1.037.027.064.057.126.084.189.129.296.269.585.419.869.036.068.07.137.107.205.175.317.363.626.564.927.046.069.094.135.141.203.183.264.375.521.576.77.038.047.074.096.113.143.231.278.475.544.728.801.062.063.125.124.189.186.245.239.496.471.759.69.023.02.045.041.069.06a13.226 13.226 0 0 0 1.1.807c.077.049.151.103.228.152zm6.922 0c-6.065 0-11-4.935-11-11s4.935-11 11-11c.312 0 .62.021.926.047.291.028.592.066.909.119l.443.074C52.753 37.293 56.5 41.716 56.5 47c0 6.065-4.935 11-11 11z"></path><path d="M51.5 46h-5v-5a1 1 0 0 0-2 0v5h-5a1 1 0 0 0 0 2h5v5a1 1 0 0 0 2 0v-5h5a1 1 0 0 0 0-2z"></path></svg><svg viewBox="0 0 52 52" width="32" height="32" id="plus" y="64"><path d="M26 0C11.664 0 0 11.663 0 26s11.664 26 26 26 26-11.663 26-26S40.336 0 26 0zm12.5 28H28v11a2 2 0 0 1-4 0V28H13.5a2 2 0 0 1 0-4H24V14a2 2 0 0 1 4 0v10h10.5a2 2 0 0 1 0 4z" data-original="#000000" class="active-path" data-old_color="#00BFFF" fill="#00B7FF"></path></svg><svg width="32" height="32" viewBox="0 0 511.627 511.627" id="sort_asc" y="96"><path d="M333.584 438.536h-73.087c-2.666 0-4.853.855-6.567 2.573-1.709 1.711-2.568 3.901-2.568 6.564v54.815c0 2.673.855 4.853 2.568 6.571 1.715 1.711 3.901 2.566 6.567 2.566h73.087c2.666 0 4.856-.855 6.563-2.566 1.718-1.719 2.563-3.898 2.563-6.571v-54.815c0-2.663-.846-4.854-2.563-6.564-1.707-1.717-3.897-2.573-6.563-2.573zM196.54 401.991h-54.817V9.136c0-2.663-.854-4.856-2.568-6.567C137.441.859 135.254 0 132.587 0H77.769c-2.663 0-4.856.855-6.567 2.568-1.709 1.715-2.568 3.905-2.568 6.567V401.99H13.816c-4.184 0-7.04 1.902-8.564 5.708-1.525 3.621-.855 6.95 1.997 9.996l91.361 91.365c2.094 1.707 4.281 2.562 6.567 2.562 2.474 0 4.665-.855 6.567-2.562l91.076-91.078c1.906-2.279 2.856-4.571 2.856-6.844 0-2.676-.859-4.859-2.568-6.584-1.713-1.706-3.9-2.562-6.568-2.562zM388.4 292.362H260.494c-2.666 0-4.853.855-6.567 2.566-1.71 1.711-2.568 3.901-2.568 6.563v54.823c0 2.662.855 4.853 2.568 6.563 1.714 1.711 3.901 2.566 6.567 2.566H388.4c2.666 0 4.855-.855 6.563-2.566 1.715-1.711 2.573-3.901 2.573-6.563v-54.823c0-2.662-.858-4.853-2.573-6.563-1.707-1.71-3.897-2.566-6.563-2.566zM504.604 2.568C502.889.859 500.702 0 498.036 0H260.497c-2.666 0-4.853.855-6.567 2.568-1.709 1.715-2.568 3.905-2.568 6.567v54.818c0 2.666.855 4.853 2.568 6.567 1.715 1.709 3.901 2.568 6.567 2.568h237.539c2.666 0 4.853-.855 6.567-2.568 1.711-1.714 2.566-3.901 2.566-6.567V9.136c.004-2.663-.855-4.857-2.565-6.568zM443.22 146.181H260.494c-2.666 0-4.853.855-6.567 2.57-1.71 1.713-2.568 3.9-2.568 6.567v54.816c0 2.667.855 4.854 2.568 6.567 1.714 1.711 3.901 2.57 6.567 2.57H443.22c2.663 0 4.853-.855 6.57-2.57 1.708-1.713 2.563-3.9 2.563-6.567v-54.816c0-2.667-.855-4.858-2.563-6.567-1.721-1.711-3.911-2.57-6.57-2.57z"></path></svg><svg width="32" height="32" viewBox="0 0 511.627 511.627" id="sort_desc" y="128"><path d="M260.494 219.271H388.4c2.666 0 4.855-.855 6.563-2.57 1.715-1.713 2.573-3.9 2.573-6.567v-54.816c0-2.667-.858-4.854-2.573-6.567-1.708-1.711-3.897-2.57-6.563-2.57H260.494c-2.666 0-4.853.855-6.567 2.57-1.71 1.713-2.568 3.9-2.568 6.567v54.816c0 2.667.855 4.854 2.568 6.567 1.714 1.712 3.901 2.57 6.567 2.57zM260.497 73.089h73.087c2.666 0 4.856-.855 6.563-2.568 1.718-1.714 2.563-3.901 2.563-6.567V9.136c0-2.663-.846-4.853-2.563-6.567C338.44.859 336.25 0 333.584 0h-73.087c-2.666 0-4.853.855-6.567 2.568-1.709 1.715-2.568 3.905-2.568 6.567v54.818c0 2.666.855 4.853 2.568 6.567 1.715 1.71 3.901 2.569 6.567 2.569zM196.54 401.991h-54.817V9.136c0-2.663-.854-4.856-2.568-6.567C137.441.859 135.254 0 132.587 0H77.769c-2.663 0-4.856.855-6.567 2.568-1.709 1.715-2.568 3.905-2.568 6.567V401.99H13.816c-4.184 0-7.04 1.902-8.564 5.708-1.525 3.621-.855 6.95 1.997 9.996l91.361 91.365c2.094 1.707 4.281 2.562 6.567 2.562 2.474 0 4.665-.855 6.567-2.562l91.076-91.078c1.906-2.279 2.856-4.571 2.856-6.844 0-2.676-.859-4.859-2.568-6.584-1.713-1.706-3.9-2.562-6.568-2.562zM504.604 441.109c-1.715-1.718-3.901-2.573-6.567-2.573h-237.54c-2.666 0-4.853.855-6.567 2.573-1.709 1.711-2.568 3.901-2.568 6.564v54.815c0 2.673.855 4.853 2.568 6.571 1.715 1.711 3.901 2.566 6.567 2.566h237.539c2.666 0 4.853-.855 6.567-2.566 1.711-1.719 2.566-3.898 2.566-6.571v-54.815c.004-2.662-.855-4.853-2.565-6.564zM260.494 365.445H443.22c2.663 0 4.853-.855 6.57-2.566 1.708-1.711 2.563-3.901 2.563-6.563v-54.823c0-2.662-.855-4.853-2.563-6.563-1.718-1.711-3.907-2.566-6.57-2.566H260.494c-2.666 0-4.853.855-6.567 2.566-1.71 1.711-2.568 3.901-2.568 6.563v54.823c0 2.662.855 4.853 2.568 6.563 1.714 1.711 3.901 2.566 6.567 2.566z"></path></svg></svg>