<svg xmlns="http://www.w3.org/2000/svg" xmlns:xlink="http://www.w3.org/1999/xlink" width="512.001" height="905" viewBox="0 0 512.001 905"><svg width="32" height="32" viewBox="0 0 612 612" id="add" y="0"><path d="M306 0C136.992 0 0 136.992 0 306s136.992 306 306 306 306-137.012 306-306S475.008 0 306 0zm0 573.75C158.125 573.75 38.25 453.875 38.25 306S158.125 38.25 306 38.25 573.75 158.125 573.75 306 453.875 573.75 306 573.75zm114.75-286.875h-95.625V191.25c0-10.557-8.568-19.125-19.125-19.125s-19.125 8.568-19.125 19.125v95.625H191.25c-10.557 0-19.125 8.568-19.125 19.125s8.568 19.125 19.125 19.125h95.625v95.625c0 10.557 8.568 19.125 19.125 19.125s19.125-8.568 19.125-19.125v-95.625h95.625c10.557 0 19.125-8.568 19.125-19.125s-8.568-19.125-19.125-19.125z" fill="#FFF"></path></svg><svg viewBox="0 0 496.158 496.158" width="32" height="32" id="add2" y="32"><path d="M0 248.085C0 111.063 111.069.003 248.075.003c137.013 0 248.083 111.061 248.083 248.082 0 137.002-111.07 248.07-248.083 248.07C111.069 496.155 0 385.087 0 248.085z" data-original="#32BEA6" data-old_color="#00CEFF" fill="#00afff"></path><path d="M383.546 206.55H289.08v-93.938a7.2 7.2 0 0 0-7.201-7.199H213.75a7.2 7.2 0 0 0-7.2 7.199v93.938h-93.937a7.2 7.2 0 0 0-7.2 7.2v69.187a7.2 7.2 0 0 0 7.2 7.199h93.937v93.41a7.2 7.2 0 0 0 7.2 7.199h68.129a7.2 7.2 0 0 0 7.201-7.199v-93.41h94.466a7.2 7.2 0 0 0 7.199-7.199V213.75a7.2 7.2 0 0 0-7.199-7.2z" data-original="#FFFFFF" class="active-path" fill="#fff"></path></svg><svg height="64" viewBox="-40 0 496 496" width="64" id="bin" y="64"><path d="M160 40h96v32h32V8H128v64h32zm0 0M80 488h256l40-360H40zm186.09-65.742l28.262-240.227c1.027-8.715 8.921-14.949 17.636-13.922 8.715 1.024 14.95 8.918 13.922 17.633L297.648 425.97c-1.027 8.715-8.921 14.949-17.636 13.922-8.715-1.024-14.95-8.918-13.922-17.633zM192 184c0-8.836 7.164-16 16-16s16 7.164 16 16v240c0 8.836-7.164 16-16 16s-16-7.164-16-16zm-86.129-16c8.059-.004 14.84 6.031 15.777 14.031l28.262 240.227c1.027 8.715-5.207 16.61-13.922 17.633-8.715 1.027-16.61-5.207-17.636-13.922L90.09 185.742c-.531-4.504.894-9.02 3.91-12.41S101.336 168 105.871 168zm0 0" fill="#acabb1"></path><g fill="#6e6d71"><path d="M256 72H8v56h400V72zm0 0M208 440c8.836 0 16-7.164 16-16V184c0-8.836-7.164-16-16-16s-16 7.164-16 16v240c0 8.836 7.164 16 16 16zm0 0M118.352 425.969c1.027 8.715 8.921 14.949 17.636 13.922 8.715-1.024 14.95-8.918 13.922-17.633L121.648 182.03c-1.027-8.715-8.921-14.949-17.636-13.922-8.715 1.024-14.95 8.918-13.922 17.633zm0 0M281.871 440c8.059.004 14.84-6.031 15.777-14.031l28.262-240.227c1.028-8.715-5.207-16.61-13.922-17.633-8.715-1.027-16.61 5.207-17.636 13.922L266.09 422.258c-.531 4.504.894 9.02 3.91 12.41S277.336 440 281.871 440zm0 0"></path></g><path d="M408 64H296V8a8 8 0 0 0-8-8H128a8 8 0 0 0-8 8v56H8a8 8 0 0 0-8 8v56a8 8 0 0 0 8 8h24.84l39.2 352.879A8 8 0 0 0 80 496h256a8.001 8.001 0 0 0 7.953-7.121L383.2 136H408a8 8 0 0 0 8-8V72a8 8 0 0 0-8-8zM136 16h144v48h-16V40a8 8 0 0 0-8-8h-96a8 8 0 0 0-8 8v24h-16zm32 48V48h80v16zm160.8 416H87.2L48.937 136h318.125zM400 120H16V80h384zm0 0"></path><path d="M208 448c13.254 0 24-10.746 24-24V184c0-13.254-10.746-24-24-24s-24 10.746-24 24v240c0 13.254 10.746 24 24 24zm-8-264a8 8 0 0 1 16 0v240a8 8 0 0 1-16 0zm0 0M82.145 186.688l28.253 240.214a23.907 23.907 0 0 0 14.215 19.5 23.906 23.906 0 0 0 23.961-2.828 23.901 23.901 0 0 0 9.281-22.27l-28.253-240.206a23.907 23.907 0 0 0-14.215-19.5 23.906 23.906 0 0 0-23.961 2.828 23.901 23.901 0 0 0-9.281 22.27zm17.832-8A7.777 7.777 0 0 1 105.87 176a7.874 7.874 0 0 1 7.832 6.969l28.266 240.23a7.89 7.89 0 1 1-15.672 1.855L98.03 184.802a7.82 7.82 0 0 1 1.969-6.153zm0 0M281.871 448c12.113 0 22.309-9.066 23.73-21.098l28.254-240.222c1.547-13.106-7.824-24.98-20.925-26.528-13.106-1.547-24.985 7.825-26.532 20.926L258.145 421.32A23.89 23.89 0 0 0 281.87 448zm20.426-265.031a7.874 7.874 0 0 1 7.832-6.969 7.896 7.896 0 0 1 7.84 8.8l-28.266 240.231a7.874 7.874 0 0 1-7.832 6.969 7.896 7.896 0 0 1-7.84-8.8zm0 0"></path></svg><svg viewBox="0 0 512.001 512.001" width="512.001" height="512.001" id="delete" y="128"><path d="M400.275 34.702v64.646h-49.904V61.82c0-4.633-3.751-8.384-8.374-8.384H170.002c-4.623 0-8.374 3.751-8.374 8.384v37.528h-49.904V34.702c0-15.013 12.165-27.178 27.168-27.178h234.214c15.004 0 27.169 12.165 27.169 27.178z" fill="#636a75"></path><path d="M400.275 34.702v64.646h-27.258V34.702c0-15.013-12.165-27.178-27.168-27.178h27.258c15.003 0 27.168 12.165 27.168 27.178z" fill="#525760"></path><path d="M255.999 195.165H63.914l37.576 304.432c.343 2.781 2.893 4.881 5.927 4.881h297.164c3.034 0 5.584-2.1 5.927-4.881l37.576-304.432H255.999z" fill="#e1e6e9"></path><path d="M448.082 195.164L410.504 499.6c-.341 2.778-2.888 4.874-5.927 4.874h-28.592c3.029 0 5.586-2.096 5.927-4.874l37.578-304.436h28.592z" fill="#d2d6d8"></path><path d="M468.335 195.165H43.665a5.07 5.07 0 0 1-5.07-5.07V104.42c0-2.8 2.27-5.07 5.07-5.07h424.67c2.8 0 5.07 2.27 5.07 5.07v85.675a5.07 5.07 0 0 1-5.07 5.07z" fill="#636a75"></path><path d="M473.405 104.423V190.1a5.066 5.066 0 0 1-5.075 5.065h-31.992a5.064 5.064 0 0 0 5.065-5.065v-85.677a5.073 5.073 0 0 0-5.065-5.075h31.992a5.074 5.074 0 0 1 5.075 5.075z" fill="#525760"></path><g fill="#636a75"><path d="M262.142 446.065h-12.284c-9.408 0-17.035-7.627-17.035-17.035V258.085c0-9.408 7.627-17.035 17.035-17.035h12.284c9.408 0 17.035 7.627 17.035 17.035V429.03c0 9.408-7.627 17.035-17.035 17.035zM354.938 446.238l-12.25-.922c-9.382-.706-16.414-8.885-15.708-18.266l12.831-170.463c.706-9.382 8.884-16.414 18.266-15.708l12.25.922c9.382.706 16.415 8.885 15.708 18.266l-12.831 170.462c-.706 9.381-8.884 16.415-18.266 15.709zM157.061 446.238l12.25-.922c9.382-.706 16.414-8.885 15.708-18.266l-12.831-170.463c-.706-9.382-8.885-16.414-18.266-15.708l-12.25.922c-9.382.706-16.415 8.885-15.708 18.266l12.831 170.463c.706 9.38 8.885 16.414 18.266 15.708z"></path></g><g fill="#525760"><path d="M279.176 258.085v170.942c0 9.407-7.622 17.039-17.039 17.039h-12.275c-.993 0-1.976-.08-2.918-.251 8.023-1.374 14.131-8.374 14.131-16.788V258.085c0-8.414-6.108-15.414-14.131-16.778a15.528 15.528 0 0 1 2.918-.261h12.275c9.417 0 17.039 7.632 17.039 17.039zM386.034 260.071l-12.827 170.461c-.712 9.377-8.886 16.417-18.273 15.705l-11.353-.852c6.278-2.126 10.992-7.843 11.523-14.853l12.827-170.461c.702-9.387-6.328-17.561-15.705-18.273l-.893-.07a16.757 16.757 0 0 1 6.739-.852l12.255.923c9.379.711 16.419 8.885 15.707 18.272zM169.31 445.314l-12.245.923a16.781 16.781 0 0 1-6.749-.852l.893-.07c9.377-.702 16.417-8.886 15.705-18.263l-12.827-170.461c-.532-7.03-5.245-12.737-11.523-14.863l11.363-.852c9.377-.702 17.561 6.328 18.263 15.715l12.827 170.461c.71 9.376-6.32 17.56-15.707 18.262z"></path></g><path d="M468.335 91.828h-60.532V34.699C407.802 15.566 392.236 0 373.103 0H138.896c-19.133 0-34.699 15.566-34.699 34.699v57.129H43.665c-6.943 0-12.592 5.648-12.592 12.592v85.675c0 6.943 5.648 12.591 12.592 12.591h13.599l6.694 54.235a7.516 7.516 0 0 0 8.386 6.543 7.52 7.52 0 0 0 6.543-8.386l-6.467-52.392h367.157l-36.322 294.27H108.744l-24.24-196.377a7.517 7.517 0 0 0-8.386-6.543 7.52 7.52 0 0 0-6.543 8.386L94.026 500.52c.808 6.545 6.565 11.481 13.393 11.481h297.165c6.827 0 12.584-4.935 13.393-11.481l36.761-297.833h13.599c6.943 0 12.592-5.648 12.592-12.591v-85.675c-.003-6.944-5.651-12.593-12.594-12.593zM119.241 34.699c0-10.838 8.817-19.656 19.656-19.656h234.206c10.838 0 19.656 8.817 19.656 19.656v57.129h-34.864V61.815c0-8.767-7.133-15.9-15.9-15.9h-22.813a7.522 7.522 0 0 0 0 15.044h22.813c.472 0 .856.384.856.856v30.013H169.148V61.815c0-.472.384-.856.856-.856H272.38a7.522 7.522 0 0 0 0-15.044H170.005c-8.767 0-15.9 7.133-15.9 15.9v30.013h-34.863l-.001-57.129zm346.642 152.944H46.116v-80.772H465.884v80.772h-.001z"></path><path d="M262.142 453.587c13.541 0 24.557-11.016 24.557-24.557V258.085c0-13.541-11.016-24.557-24.557-24.557h-12.284c-13.541 0-24.557 11.016-24.557 24.557V429.03c0 13.54 11.016 24.557 24.557 24.557h12.284zm-21.799-24.557V258.085c0-5.246 4.267-9.513 9.513-9.513h12.284c5.246 0 9.513 4.267 9.513 9.513V429.03c0 5.245-4.267 9.513-9.513 9.513h-12.284c-5.244.001-9.513-4.267-9.513-9.513zM356.256 453.809c5.867 0 11.479-2.075 15.973-5.94 4.973-4.277 7.983-10.234 8.475-16.775l12.831-170.463c1.016-13.503-9.142-25.315-22.645-26.331l-12.249-.922c-6.542-.488-12.882 1.592-17.855 5.869s-7.983 10.235-8.475 16.776L319.48 426.485c-1.016 13.502 9.142 25.314 22.645 26.331l12.249.922h-.001a25.31 25.31 0 0 0 1.883.071zm-13.002-15.994c-5.231-.394-9.167-4.97-8.773-10.2l12.831-170.463a9.453 9.453 0 0 1 3.283-6.499 9.444 9.444 0 0 1 6.918-2.274l12.249.922a9.453 9.453 0 0 1 6.499 3.283 9.451 9.451 0 0 1 2.274 6.917l-12.831 170.463a9.455 9.455 0 0 1-3.283 6.499 9.451 9.451 0 0 1-6.917 2.274l-12.25-.922zM139.771 447.869c4.495 3.865 10.106 5.94 15.973 5.94.625 0 1.254-.024 1.882-.071l12.25-.922c13.502-1.017 23.66-12.829 22.644-26.331l-12.83-170.462a24.396 24.396 0 0 0-8.475-16.776c-4.972-4.276-11.315-6.355-17.855-5.869l-12.249.922c-13.503 1.017-23.661 12.829-22.645 26.331l12.831 170.463c.49 6.541 3.501 12.498 8.474 16.775zm-4.033-195.285a9.447 9.447 0 0 1 6.499-3.283l12.249-.922a9.438 9.438 0 0 1 6.917 2.274 9.447 9.447 0 0 1 3.283 6.499l12.831 170.463c.394 5.231-3.541 9.807-8.772 10.2l-12.25.922h-.001a9.45 9.45 0 0 1-6.917-2.274 9.447 9.447 0 0 1-3.283-6.499l-12.831-170.463a9.46 9.46 0 0 1 2.275-6.917z"></path></svg><svg viewBox="0 0 53.255 53.255" width="53.255" height="53.255" id="edit" y="641"><path d="M39.598 2.343a8 8 0 0 1 11.314 11.314L39.598 2.343z" fill="#d75a4a"></path><path fill="#ed8a19" d="M42.426 17.899L16.512 43.814l-.53 4.773L44.548 20.02zM10.325 42.93l4.773-.53 25.914-25.915-4.242-4.242-25.915 25.914zM35.356 10.829l-2.122-2.122L4.668 37.273l4.773-.53z"></path><path fill="#c7cac7" d="M48.79 15.778l2.122-2.121L39.598 2.343l-2.122 2.122h.001zM36.062 5.879l-1.414 1.414 11.314 11.313 1.414-1.414z"></path><path d="M14.424 44.488l-5.122.569a.995.995 0 0 1-.109.006h-.002a.995.995 0 0 1-.109-.006c-.039-.004-.071-.026-.108-.035a.982.982 0 0 1-.207-.067 1.016 1.016 0 0 1-.138-.084 1.002 1.002 0 0 1-.257-.261.974.974 0 0 1-.145-.346c-.007-.032-.024-.059-.028-.092-.004-.038.01-.073.01-.11 0-.038-.014-.072-.01-.11l.569-5.122-5.122.569a1.046 1.046 0 0 1-.111.006c-.079 0-.152-.024-.227-.042L.442 51.399l2.106-2.106a.999.999 0 1 1 1.414 1.414l-2.106 2.106 12.03-2.864a.983.983 0 0 1-.03-.339l.568-5.122z" fill="#fbce9d"></path><path d="M3.962 49.293a.999.999 0 0 0-1.414 0L.442 51.399 0 53.255l1.856-.442 2.106-2.106a1 1 0 0 0 0-1.414z" fill="#38454f"></path><path fill="#f2ecbf" d="M48.79 15.778L37.477 4.465h-.001l-1.414 1.414 11.314 11.313 1.414-1.414z"></path><path d="M41.012 16.485L15.098 42.4l-4.773.53.53-4.773L36.77 12.243l-1.414-1.414L9.441 36.743l-4.773.53-1.133 1.133-.228.957c.075.018.147.042.227.042.036 0 .074-.002.111-.006l5.122-.569-.569 5.122c-.004.038.01.073.01.11 0 .038-.014.072-.01.11.004.033.021.06.028.092a1.016 1.016 0 0 0 .245.473c.047.05.1.094.157.134a.924.924 0 0 0 .138.084c.065.031.135.05.207.067.038.009.069.03.108.035a.982.982 0 0 0 .109.006h.004c.035 0 .072-.002.109-.006l5.122-.569-.569 5.122a.981.981 0 0 0 .03.339l.963-.229 1.133-1.132.53-4.773L42.426 17.9l-1.414-1.415z" fill="#ebba16"></path><path fill="#f2ecbf" d="M45.962 18.606L34.648 7.293l-1.414 1.414 2.122 2.122 1.414 1.414 4.242 4.242 1.414 1.414 2.122 2.121 1.414-1.414z"></path></svg><svg viewBox="0 0 50 50" width="50" height="50" id="error" y="695"><circle cx="25" cy="25" r="25" fill="#d75a4a"></circle><path fill="none" stroke="#fff" stroke-width="2" stroke-linecap="round" stroke-miterlimit="10" d="M16 34l9-9 9-9M16 16l9 9 9 9"></path></svg><svg viewBox="0 0 60 60" width="32" height="32" id="file" y="745"><path d="M12.5 24h25a1 1 0 0 0 0-2h-25a1 1 0 0 0 0 2zM12.5 16h10a1 1 0 0 0 0-2h-10a1 1 0 0 0 0 2zM12.5 32h25a1 1 0 0 0 0-2h-25a1 1 0 0 0 0 2zM29.5 38h-17a1 1 0 0 0 0 2h17a1 1 0 0 0 0-2zM26.5 46h-14a1 1 0 0 0 0 2h14a1 1 0 0 0 0-2z"></path><path d="M48.5 34.363V14.586L33.914 0H1.5v60h44c7.168 0 13-5.832 13-13 0-6.134-4.276-11.277-10-12.637zm-14-30.949L45.086 14H34.5V3.414zM38.578 58H3.5V2h29v14h14v18.044a11.818 11.818 0 0 0-1-.044c-7.168 0-13 5.832-13 13a13.233 13.233 0 0 0 .087 1.455c.043.382.098.76.173 1.131.009.044.021.087.03.131.072.338.159.67.257.998.025.082.048.165.074.246.113.352.239.698.38 1.037.027.064.057.126.084.189.129.296.269.585.419.869.036.068.07.137.107.205.175.317.363.626.564.927.046.069.094.135.141.203.183.264.375.521.576.77.038.047.074.096.113.143.231.278.475.544.728.801.062.063.125.124.189.186.245.239.496.471.759.69.023.02.045.041.069.06a13.226 13.226 0 0 0 1.1.807c.077.049.151.103.228.152zm6.922 0c-6.065 0-11-4.935-11-11s4.935-11 11-11c.312 0 .62.021.926.047.291.028.592.066.909.119l.443.074C52.753 37.293 56.5 41.716 56.5 47c0 6.065-4.935 11-11 11z"></path><path d="M51.5 46h-5v-5a1 1 0 0 0-2 0v5h-5a1 1 0 0 0 0 2h5v5a1 1 0 0 0 2 0v-5h5a1 1 0 0 0 0-2z"></path></svg><svg viewBox="0 0 52 52" width="32" height="32" id="plus" y="777"><path d="M26 0C11.664 0 0 11.663 0 26s11.664 26 26 26 26-11.663 26-26S40.336 0 26 0zm12.5 28H28v11a2 2 0 0 1-4 0V28H13.5a2 2 0 0 1 0-4H24V14a2 2 0 0 1 4 0v10h10.5a2 2 0 0 1 0 4z" data-original="#000000" class="active-path" data-old_color="#00BFFF" fill="#00B7FF"></path></svg><svg width="32" height="32" viewBox="0 0 408.483 408.483" id="rubbish-bin" y="809"><path d="M87.748 388.784c.461 11.01 9.521 19.699 20.539 19.699h191.911c11.018 0 20.078-8.689 20.539-19.699l13.705-289.316H74.043l13.705 289.316zm159.907-217.455a8.35 8.35 0 0 1 8.35-8.349h13.355a8.351 8.351 0 0 1 8.35 8.349v165.293a8.35 8.35 0 0 1-8.35 8.349h-13.355a8.35 8.35 0 0 1-8.35-8.349V171.329zm-58.439 0a8.35 8.35 0 0 1 8.349-8.349h13.355a8.35 8.35 0 0 1 8.349 8.349v165.293a8.348 8.348 0 0 1-8.349 8.349h-13.355a8.348 8.348 0 0 1-8.349-8.349V171.329zm-58.441 0a8.35 8.35 0 0 1 8.349-8.349h13.356a8.35 8.35 0 0 1 8.349 8.349v165.293a8.349 8.349 0 0 1-8.349 8.349h-13.356a8.348 8.348 0 0 1-8.349-8.349V171.329zM343.567 21.043h-88.535V4.305A4.305 4.305 0 0 0 250.727 0h-92.971a4.305 4.305 0 0 0-4.304 4.305v16.737H64.916c-7.125 0-12.9 5.776-12.9 12.901V74.47h304.451V33.944c0-7.125-5.775-12.901-12.9-12.901z"></path></svg><svg width="32" height="32" viewBox="0 0 511.627 511.627" id="sort_asc" y="841"><path d="M333.584 438.536h-73.087c-2.666 0-4.853.855-6.567 2.573-1.709 1.711-2.568 3.901-2.568 6.564v54.815c0 2.673.855 4.853 2.568 6.571 1.715 1.711 3.901 2.566 6.567 2.566h73.087c2.666 0 4.856-.855 6.563-2.566 1.718-1.719 2.563-3.898 2.563-6.571v-54.815c0-2.663-.846-4.854-2.563-6.564-1.707-1.717-3.897-2.573-6.563-2.573zM196.54 401.991h-54.817V9.136c0-2.663-.854-4.856-2.568-6.567C137.441.859 135.254 0 132.587 0H77.769c-2.663 0-4.856.855-6.567 2.568-1.709 1.715-2.568 3.905-2.568 6.567V401.99H13.816c-4.184 0-7.04 1.902-8.564 5.708-1.525 3.621-.855 6.95 1.997 9.996l91.361 91.365c2.094 1.707 4.281 2.562 6.567 2.562 2.474 0 4.665-.855 6.567-2.562l91.076-91.078c1.906-2.279 2.856-4.571 2.856-6.844 0-2.676-.859-4.859-2.568-6.584-1.713-1.706-3.9-2.562-6.568-2.562zM388.4 292.362H260.494c-2.666 0-4.853.855-6.567 2.566-1.71 1.711-2.568 3.901-2.568 6.563v54.823c0 2.662.855 4.853 2.568 6.563 1.714 1.711 3.901 2.566 6.567 2.566H388.4c2.666 0 4.855-.855 6.563-2.566 1.715-1.711 2.573-3.901 2.573-6.563v-54.823c0-2.662-.858-4.853-2.573-6.563-1.707-1.71-3.897-2.566-6.563-2.566zM504.604 2.568C502.889.859 500.702 0 498.036 0H260.497c-2.666 0-4.853.855-6.567 2.568-1.709 1.715-2.568 3.905-2.568 6.567v54.818c0 2.666.855 4.853 2.568 6.567 1.715 1.709 3.901 2.568 6.567 2.568h237.539c2.666 0 4.853-.855 6.567-2.568 1.711-1.714 2.566-3.901 2.566-6.567V9.136c.004-2.663-.855-4.857-2.565-6.568zM443.22 146.181H260.494c-2.666 0-4.853.855-6.567 2.57-1.71 1.713-2.568 3.9-2.568 6.567v54.816c0 2.667.855 4.854 2.568 6.567 1.714 1.711 3.901 2.57 6.567 2.57H443.22c2.663 0 4.853-.855 6.57-2.57 1.708-1.713 2.563-3.9 2.563-6.567v-54.816c0-2.667-.855-4.858-2.563-6.567-1.721-1.711-3.911-2.57-6.57-2.57z"></path></svg><svg width="32" height="32" viewBox="0 0 511.627 511.627" id="sort_desc" y="873"><path d="M260.494 219.271H388.4c2.666 0 4.855-.855 6.563-2.57 1.715-1.713 2.573-3.9 2.573-6.567v-54.816c0-2.667-.858-4.854-2.573-6.567-1.708-1.711-3.897-2.57-6.563-2.57H260.494c-2.666 0-4.853.855-6.567 2.57-1.71 1.713-2.568 3.9-2.568 6.567v54.816c0 2.667.855 4.854 2.568 6.567 1.714 1.712 3.901 2.57 6.567 2.57zM260.497 73.089h73.087c2.666 0 4.856-.855 6.563-2.568 1.718-1.714 2.563-3.901 2.563-6.567V9.136c0-2.663-.846-4.853-2.563-6.567C338.44.859 336.25 0 333.584 0h-73.087c-2.666 0-4.853.855-6.567 2.568-1.709 1.715-2.568 3.905-2.568 6.567v54.818c0 2.666.855 4.853 2.568 6.567 1.715 1.71 3.901 2.569 6.567 2.569zM196.54 401.991h-54.817V9.136c0-2.663-.854-4.856-2.568-6.567C137.441.859 135.254 0 132.587 0H77.769c-2.663 0-4.856.855-6.567 2.568-1.709 1.715-2.568 3.905-2.568 6.567V401.99H13.816c-4.184 0-7.04 1.902-8.564 5.708-1.525 3.621-.855 6.95 1.997 9.996l91.361 91.365c2.094 1.707 4.281 2.562 6.567 2.562 2.474 0 4.665-.855 6.567-2.562l91.076-91.078c1.906-2.279 2.856-4.571 2.856-6.844 0-2.676-.859-4.859-2.568-6.584-1.713-1.706-3.9-2.562-6.568-2.562zM504.604 441.109c-1.715-1.718-3.901-2.573-6.567-2.573h-237.54c-2.666 0-4.853.855-6.567 2.573-1.709 1.711-2.568 3.901-2.568 6.564v54.815c0 2.673.855 4.853 2.568 6.571 1.715 1.711 3.901 2.566 6.567 2.566h237.539c2.666 0 4.853-.855 6.567-2.566 1.711-1.719 2.566-3.898 2.566-6.571v-54.815c.004-2.662-.855-4.853-2.565-6.564zM260.494 365.445H443.22c2.663 0 4.853-.855 6.57-2.566 1.708-1.711 2.563-3.901 2.563-6.563v-54.823c0-2.662-.855-4.853-2.563-6.563-1.718-1.711-3.907-2.566-6.57-2.566H260.494c-2.666 0-4.853.855-6.567 2.566-1.71 1.711-2.568 3.901-2.568 6.563v54.823c0 2.662.855 4.853 2.568 6.563 1.714 1.711 3.901 2.566 6.567 2.566z"></path></svg></svg>