<?xml version="1.0" encoding="iso-8859-1"?>
<!-- Generator: Adobe Illustrator 19.0.0, SVG Export Plug-In . SVG Version: 6.00 Build 0)  -->
<svg version="1.1" id="Capa_1" xmlns="http://www.w3.org/2000/svg" xmlns:xlink="http://www.w3.org/1999/xlink" x="0px" y="0px"
	 viewBox="0 0 512.001 512.001" style="enable-background:new 0 0 512.001 512.001;" xml:space="preserve" width="">
<path style="fill:#636A75;" d="M400.275,34.702v64.646h-49.904V61.82c0-4.633-3.751-8.384-8.374-8.384H170.002
	c-4.623,0-8.374,3.751-8.374,8.384v37.528h-49.904V34.702c0-15.013,12.165-27.178,27.168-27.178h234.214
	C388.11,7.524,400.275,19.689,400.275,34.702z"/>
<path style="fill:#525760;" d="M400.275,34.702v64.646h-27.258V34.702c0-15.013-12.165-27.178-27.168-27.178h27.258
	C388.11,7.524,400.275,19.689,400.275,34.702z"/>
<path style="fill:#E1E6E9;" d="M255.999,195.165H63.914l37.576,304.432c0.343,2.781,2.893,4.881,5.927,4.881h148.582h148.582
	c3.034,0,5.584-2.1,5.927-4.881l37.576-304.432H255.999z"/>
<path style="fill:#D2D6D8;" d="M448.082,195.164L410.504,499.6c-0.341,2.778-2.888,4.874-5.927,4.874h-28.592
	c3.029,0,5.586-2.096,5.927-4.874l37.578-304.436L448.082,195.164L448.082,195.164z"/>
<path style="fill:#636A75;" d="M468.335,195.165H43.665c-2.8,0-5.07-2.27-5.07-5.07v-85.675c0-2.8,2.27-5.07,5.07-5.07h424.67
	c2.8,0,5.07,2.27,5.07,5.07v85.675C473.404,192.895,471.135,195.165,468.335,195.165z"/>
<path style="fill:#525760;" d="M473.405,104.423v85.677c0,2.798-2.267,5.065-5.075,5.065h-31.992c2.798,0,5.065-2.267,5.065-5.065
	v-85.677c0-2.798-2.267-5.075-5.065-5.075h31.992C471.139,99.348,473.405,101.625,473.405,104.423z"/>
<g>
	<path style="fill:#636A75;" d="M262.142,446.065h-12.284c-9.408,0-17.035-7.627-17.035-17.035V258.085
		c0-9.408,7.627-17.035,17.035-17.035h12.284c9.408,0,17.035,7.627,17.035,17.035V429.03
		C279.177,438.438,271.55,446.065,262.142,446.065z"/>
	<path style="fill:#636A75;" d="M354.938,446.238l-12.25-0.922c-9.382-0.706-16.414-8.885-15.708-18.266l12.831-170.463
		c0.706-9.382,8.884-16.414,18.266-15.708l12.25,0.922c9.382,0.706,16.415,8.885,15.708,18.266l-12.831,170.462
		C372.498,439.91,364.32,446.944,354.938,446.238z"/>
	<path style="fill:#636A75;" d="M157.061,446.238l12.25-0.922c9.382-0.706,16.414-8.885,15.708-18.266l-12.831-170.463
		c-0.706-9.382-8.885-16.414-18.266-15.708l-12.25,0.922c-9.382,0.706-16.415,8.885-15.708,18.266l12.831,170.463
		C139.501,439.91,147.68,446.944,157.061,446.238z"/>
</g>
<g>
	<path style="fill:#525760;" d="M279.176,258.085v170.942c0,9.407-7.622,17.039-17.039,17.039h-12.275
		c-0.993,0-1.976-0.08-2.918-0.251c8.023-1.374,14.131-8.374,14.131-16.788V258.085c0-8.414-6.108-15.414-14.131-16.778
		c0.943-0.181,1.926-0.261,2.918-0.261h12.275C271.554,241.046,279.176,248.678,279.176,258.085z"/>
	<path style="fill:#525760;" d="M386.034,260.071l-12.827,170.461c-0.712,9.377-8.886,16.417-18.273,15.705l-11.353-0.852
		c6.278-2.126,10.992-7.843,11.523-14.853l12.827-170.461c0.702-9.387-6.328-17.561-15.705-18.273l-0.893-0.07
		c2.106-0.722,4.383-1.033,6.739-0.852l12.255,0.923C379.706,242.51,386.746,250.684,386.034,260.071z"/>
	<path style="fill:#525760;" d="M169.31,445.314l-12.245,0.923c-2.367,0.181-4.643-0.13-6.749-0.852l0.893-0.07
		c9.377-0.702,16.417-8.886,15.705-18.263l-12.827-170.461c-0.532-7.03-5.245-12.737-11.523-14.863l11.363-0.852
		c9.377-0.702,17.561,6.328,18.263,15.715l12.827,170.461C185.727,436.428,178.697,444.612,169.31,445.314z"/>
</g>
<path d="M468.335,91.828h-60.532V34.699C407.802,15.566,392.236,0,373.103,0H138.896c-19.133,0-34.699,15.566-34.699,34.699v57.129
	H43.665c-6.943,0-12.592,5.648-12.592,12.592v85.675c0,6.943,5.648,12.591,12.592,12.591h13.599l6.694,54.235
	c0.508,4.122,4.26,7.056,8.386,6.543c4.123-0.508,7.052-4.263,6.543-8.386l-6.467-52.392h367.157l-36.322,294.27H108.744
	l-24.24-196.377c-0.508-4.122-4.258-7.054-8.386-6.543c-4.123,0.508-7.052,4.263-6.543,8.386L94.026,500.52
	c0.808,6.545,6.565,11.481,13.393,11.481h297.165c6.827,0,12.584-4.935,13.393-11.481l36.761-297.833h13.599
	c6.943,0,12.592-5.648,12.592-12.591v-85.675C480.926,97.477,475.278,91.828,468.335,91.828z M119.241,34.699
	c0-10.838,8.817-19.656,19.656-19.656h234.206c10.838,0,19.656,8.817,19.656,19.656v57.129h-34.864V61.815
	c0-8.767-7.133-15.9-15.9-15.9h-22.813c-4.154,0-7.522,3.368-7.522,7.522s3.368,7.522,7.522,7.522h22.813
	c0.472,0,0.856,0.384,0.856,0.856v30.013H169.148V61.815c0-0.472,0.384-0.856,0.856-0.856h102.376c4.154,0,7.522-3.368,7.522-7.522
	s-3.368-7.522-7.522-7.522H170.005c-8.767,0-15.9,7.133-15.9,15.9v30.013h-34.863L119.241,34.699L119.241,34.699z M465.883,187.643
	h-9.292H55.408h-9.292v-80.772h58.082h49.907h203.79h49.908h58.081v80.772H465.883z"/>
<path d="M262.142,453.587c13.541,0,24.557-11.016,24.557-24.557V258.085c0-13.541-11.016-24.557-24.557-24.557h-12.284
	c-13.541,0-24.557,11.016-24.557,24.557V429.03c0,13.54,11.016,24.557,24.557,24.557H262.142z M240.343,429.03V258.085
	c0-5.246,4.267-9.513,9.513-9.513h12.284c5.246,0,9.513,4.267,9.513,9.513V429.03c0,5.245-4.267,9.513-9.513,9.513h-12.284
	C244.612,438.544,240.343,434.276,240.343,429.03z"/>
<path d="M356.256,453.809c5.867,0,11.479-2.075,15.973-5.94c4.973-4.277,7.983-10.234,8.475-16.775l12.831-170.463
	c1.016-13.503-9.142-25.315-22.645-26.331l-12.249-0.922c-6.542-0.488-12.882,1.592-17.855,5.869s-7.983,10.235-8.475,16.776
	l-12.831,170.462c-1.016,13.502,9.142,25.314,22.645,26.331l12.249,0.922h-0.001C355.004,453.785,355.63,453.809,356.256,453.809z
	 M343.254,437.815c-5.231-0.394-9.167-4.97-8.773-10.2l12.831-170.463c0.191-2.534,1.357-4.843,3.283-6.499
	c1.741-1.497,3.915-2.301,6.189-2.301c0.242,0,0.484,0.009,0.729,0.027l12.249,0.922c2.534,0.191,4.843,1.357,6.499,3.283
	c1.657,1.927,2.465,4.384,2.274,6.917l-12.831,170.463c-0.191,2.534-1.357,4.842-3.283,6.499c-1.927,1.657-4.384,2.465-6.917,2.274
	L343.254,437.815z"/>
<path d="M139.771,447.869c4.495,3.865,10.106,5.94,15.973,5.94c0.625,0,1.254-0.024,1.882-0.071l12.25-0.922
	c13.502-1.017,23.66-12.829,22.644-26.331L179.69,256.023c-0.492-6.541-3.502-12.499-8.475-16.776
	c-4.972-4.276-11.315-6.355-17.855-5.869l-12.249,0.922c-13.503,1.017-23.661,12.829-22.645,26.331l12.831,170.463
	C131.787,437.635,134.798,443.592,139.771,447.869z M135.738,252.584c1.657-1.927,3.965-3.093,6.499-3.283l12.249-0.922
	c0.244-0.019,0.486-0.027,0.729-0.027c2.273,0,4.447,0.803,6.188,2.301c1.927,1.657,3.093,3.965,3.283,6.499l12.831,170.463
	c0.394,5.231-3.541,9.807-8.772,10.2l-12.25,0.922h-0.001c-2.531,0.192-4.99-0.617-6.917-2.274
	c-1.927-1.657-3.093-3.965-3.283-6.499l-12.831-170.463C133.274,256.968,134.081,254.511,135.738,252.584z"/>
<g>
</g>
<g>
</g>
<g>
</g>
<g>
</g>
<g>
</g>
<g>
</g>
<g>
</g>
<g>
</g>
<g>
</g>
<g>
</g>
<g>
</g>
<g>
</g>
<g>
</g>
<g>
</g>
<g>
</g>
</svg>
